<?xml version="1.0" encoding="utf-8"?>
<!-- Generator: Adobe Illustrator 23.1.0, SVG Export Plug-In . SVG Version: 6.00 Build 0)  -->
<svg version="1.1" id="Layer_1" xmlns="http://www.w3.org/2000/svg" xmlns:xlink="http://www.w3.org/1999/xlink" x="0px" y="0px"
	 viewBox="0 0 256 256" style="enable-background:new 0 0 256 256;" xml:space="preserve">
<style type="text/css">
	.st0{fill:#76B29D;stroke:#76B29D;stroke-width:3;stroke-miterlimit:10;}
	.st1{fill:#FFFFFF;stroke:#76B29D;stroke-width:3;stroke-miterlimit:10;}
	.st2{fill:none;stroke:#76B29D;stroke-width:9;stroke-miterlimit:10;}
</style>
<path class="st0" d="M161.7,175H40.7c-5.4,0-9.8-4.4-9.8-9.8V85.7c0-5.4,4.4-9.8,9.8-9.8h121.1c5.4,0,9.8,4.4,9.8,9.8v79.5
	C171.6,170.6,167.2,175,161.7,175z"/>
<path class="st0" d="M219,175h-30.5c-5.9,0-10.7-4.8-10.7-10.7v-47.5c0-5.9,4.8-10.7,10.7-10.7H219c5.9,0,10.7,4.8,10.7,10.7v47.5
	C229.7,170.2,224.9,175,219,175z"/>
<path class="st1" d="M215.6,148.4h-6c-6.4,0-11.7-5.3-11.7-11.7v-14.3c0-6.4,5.3-11.7,11.7-11.7h6c6.4,0,11.7,5.3,11.7,11.7v14.3
	C227.4,143.1,222.1,148.4,215.6,148.4z"/>
<circle class="st2" cx="128.1" cy="128.4" r="122.8"/>
<circle class="st1" cx="197.9" cy="180.5" r="12.5"/>
<circle class="st1" cx="63.9" cy="175" r="17.1"/>
</svg>
