<?xml version="1.0" encoding="utf-8"?>
<!-- Generator: Adobe Illustrator 23.1.0, SVG Export Plug-In . SVG Version: 6.00 Build 0)  -->
<svg version="1.1" id="Layer_1" xmlns="http://www.w3.org/2000/svg" xmlns:xlink="http://www.w3.org/1999/xlink" x="0px" y="0px"
	 viewBox="0 0 256 256" style="enable-background:new 0 0 256 256;" xml:space="preserve">
<style type="text/css">
	.st0{fill:none;stroke:#76B29D;stroke-width:9;stroke-miterlimit:10;}
	.st1{fill:#75B29D;stroke:#76B29D;stroke-width:3;stroke-miterlimit:10;}
</style>
<circle class="st0" cx="128.1" cy="128.4" r="122.8"/>
<path class="st1" d="M87.1,129.2L87.1,129.2c1.7,0,3-1.4,3-3V47.1c0-1.7-1.4-3-3-3h0c-1.7,0-3,1.4-3,3v79.1
	C84.1,127.9,85.5,129.2,87.1,129.2z"/>
<path class="st1" d="M168.9,132.1L168.9,132.1c-1.7,0-3-1.4-3-3V50c0-1.7,1.4-3,3-3l0,0c1.7,0,3,1.4,3,3v79.1
	C171.9,130.8,170.5,132.1,168.9,132.1z"/>
<path class="st1" d="M194.4,160c0,34.7-28.2,62.9-62.9,62.9S68.6,194.7,68.6,160"/>
</svg>
