<?xml version="1.0" encoding="utf-8"?>
<!-- Generator: Adobe Illustrator 23.1.0, SVG Export Plug-In . SVG Version: 6.00 Build 0)  -->
<svg version="1.1" id="Layer_1" xmlns="http://www.w3.org/2000/svg" xmlns:xlink="http://www.w3.org/1999/xlink" x="0px" y="0px"
	 viewBox="0 0 256 256" style="enable-background:new 0 0 256 256;" xml:space="preserve">
<style type="text/css">
	.st0{fill:none;stroke:#76B29D;stroke-width:9;stroke-miterlimit:10;}
	.st1{fill:#76B29D;stroke:#76B29D;stroke-width:5;stroke-miterlimit:10;}
	.st2{fill:#FFFFFF;stroke:#76B29D;stroke-width:5;stroke-miterlimit:10;}
	.st3{fill:#FDFEFE;stroke:#76B29D;stroke-width:5;stroke-miterlimit:10;}
</style>
<circle class="st0" cx="128" cy="128" r="122.8"/>
<path class="st1" d="M162.3,201.7H93.7c-6.3,0-11.4-5.1-11.4-11.4V47.7c0-6.3,5.1-11.4,11.4-11.4h68.5c6.3,0,11.4,5.1,11.4,11.4
	v142.6C173.7,196.6,168.5,201.7,162.3,201.7z"/>
<path class="st2" d="M157.9,169.7H98.1c-7.8,0-14.1-6.3-14.1-14.1V58.3c0-7.8,6.3-14.1,14.1-14.1h59.8c7.8,0,14.1,6.3,14.1,14.1
	v97.3C172,163.3,165.7,169.7,157.9,169.7z"/>
<circle class="st3" cx="128" cy="186.1" r="11.1"/>
</svg>
